<svg width="24" height="25" viewBox="0 0 24 25" fill="none" xmlns="http://www.w3.org/2000/svg">
<path d="M10.4862 16.8709C10.355 16.8712 10.2249 16.8455 10.1036 16.7954C9.98229 16.7453 9.87205 16.6717 9.77923 16.5789L5.53723 12.3359C5.44166 12.2437 5.3654 12.1334 5.31291 12.0114C5.26041 11.8895 5.23274 11.7583 5.23149 11.6255C5.23024 11.4927 5.25545 11.361 5.30565 11.2381C5.35584 11.1152 5.43001 11.0035 5.52384 10.9095C5.61766 10.8156 5.72926 10.7412 5.85212 10.6909C5.97498 10.6405 6.10664 10.6151 6.23942 10.6161C6.3722 10.6172 6.50344 10.6447 6.62548 10.697C6.74752 10.7493 6.85792 10.8254 6.95023 10.9209L10.4852 14.4559L16.8502 8.09289C17.0377 7.90524 17.2921 7.79978 17.5574 7.79968C17.8226 7.79959 18.0771 7.90488 18.2647 8.09239C18.4524 8.27989 18.5578 8.53426 18.5579 8.79953C18.558 9.0648 18.4527 9.31924 18.2652 9.50689L11.1932 16.5789C11.1004 16.6717 10.9902 16.7453 10.8688 16.7954C10.7475 16.8455 10.6175 16.8712 10.4862 16.8709Z" fill="#818CF8"/>
</svg>
