<svg width="25" height="25" viewBox="0 0 25 25" fill="none" xmlns="http://www.w3.org/2000/svg">
<path d="M22.3359 6.04754C21.5863 6.37492 20.7924 6.58958 19.9799 6.68454C20.8327 6.18378 21.474 5.38965 21.7839 4.45054C20.9759 4.92087 20.0947 5.25215 19.1769 5.43054C18.7905 5.02575 18.3256 4.70393 17.8107 4.48472C17.2958 4.26551 16.7416 4.15351 16.1819 4.15554C13.9159 4.15554 12.0789 5.96554 12.0789 8.19554C12.0789 8.51154 12.1149 8.82054 12.1849 9.11554C10.5595 9.03824 8.96805 8.62295 7.51211 7.89618C6.05616 7.16942 4.7677 6.14713 3.72894 4.89454C3.36476 5.50895 3.17335 6.21033 3.17494 6.92454C3.17563 7.59251 3.34277 8.24977 3.66123 8.83694C3.97969 9.4241 4.43944 9.92266 4.99894 10.2875C4.34842 10.2665 3.71196 10.0929 3.14094 9.78054V9.83054C3.14094 11.7885 4.55594 13.4215 6.43094 13.7935C6.07855 13.887 5.71552 13.9344 5.35094 13.9345C5.08594 13.9345 4.82894 13.9095 4.57794 13.8595C4.84602 14.6675 5.35904 15.3719 6.04576 15.8749C6.73247 16.3779 7.55878 16.6546 8.40994 16.6665C6.95001 17.7911 5.15776 18.3986 3.31494 18.3935C2.98294 18.3935 2.65694 18.3735 2.33594 18.3375C4.21719 19.5283 6.39853 20.1588 8.62494 20.1555C16.1719 20.1555 20.2979 13.9985 20.2979 8.65954L20.2839 8.13654C21.0888 7.57021 21.7841 6.86239 22.3359 6.04754Z" fill="#E2E8F0"/>
</svg>
